<svg width="20" height="20" viewBox="0 0 20 20" fill="none" xmlns="http://www.w3.org/2000/svg">
<path d="M19.1666 17.4999V15.8332C19.1661 15.0947 18.9203 14.3772 18.4678 13.7935C18.0153 13.2098 17.3817 12.7929 16.6666 12.6082" stroke="#1B1BE6" stroke-width="1.2" stroke-linecap="round" stroke-linejoin="round"/>
<path d="M14.1667 17.5V15.8333C14.1667 14.9493 13.8155 14.1014 13.1904 13.4763C12.5653 12.8512 11.7174 12.5 10.8334 12.5H4.16671C3.28265 12.5 2.43481 12.8512 1.80968 13.4763C1.18456 14.1014 0.833374 14.9493 0.833374 15.8333V17.5" stroke="#1B1BE6" stroke-width="1.2" stroke-linecap="round" stroke-linejoin="round"/>
<path d="M13.3334 2.60822C14.0504 2.7918 14.6859 3.2088 15.1397 3.79347C15.5936 4.37815 15.8399 5.09724 15.8399 5.83738C15.8399 6.57752 15.5936 7.29662 15.1397 7.88129C14.6859 8.46596 14.0504 8.88296 13.3334 9.06655" stroke="#1B1BE6" stroke-width="1.2" stroke-linecap="round" stroke-linejoin="round"/>
<path d="M7.49996 9.16667C9.34091 9.16667 10.8333 7.67428 10.8333 5.83333C10.8333 3.99238 9.34091 2.5 7.49996 2.5C5.65901 2.5 4.16663 3.99238 4.16663 5.83333C4.16663 7.67428 5.65901 9.16667 7.49996 9.16667Z" stroke="#1B1BE6" stroke-width="1.2" stroke-linecap="round" stroke-linejoin="round"/>
</svg>
