<svg width="21" height="20" viewBox="0 0 21 20" fill="none" xmlns="http://www.w3.org/2000/svg">
<path d="M10.0918 1.7933C12.7618 1.7933 13.078 1.80325 14.1327 1.85112C14.7669 1.85884 15.3951 1.97473 15.9899 2.19376C16.4212 2.35932 16.813 2.61293 17.1399 2.93828C17.4668 3.26363 17.7216 3.6535 17.888 4.08279C18.1081 4.67476 18.2245 5.29991 18.2323 5.93106C18.2799 6.98079 18.2904 7.29547 18.2904 9.95271C18.2904 12.61 18.2804 12.9246 18.2323 13.9744C18.2245 14.6055 18.1081 15.2307 17.888 15.8226C17.7216 16.2519 17.4668 16.6418 17.1399 16.9671C16.813 17.2925 16.4212 17.5461 15.9899 17.7117C15.3951 17.9307 14.7669 18.0466 14.1327 18.0543C13.0785 18.1017 12.7623 18.1121 10.0918 18.1121C7.42132 18.1121 7.10513 18.1022 6.05084 18.0543C5.41667 18.0466 4.78852 17.9307 4.1937 17.7117C3.76235 17.5461 3.37061 17.2925 3.0437 16.9671C2.71679 16.6418 2.46196 16.2519 2.29561 15.8226C2.07553 15.2307 1.95908 14.6055 1.95132 13.9744C1.9037 12.9246 1.89323 12.61 1.89323 9.95271C1.89323 7.29547 1.90323 6.98079 1.95132 5.93106C1.95908 5.29991 2.07553 4.67476 2.29561 4.08279C2.46196 3.6535 2.71679 3.26363 3.0437 2.93828C3.37061 2.61293 3.76235 2.35932 4.1937 2.19376C4.78852 1.97473 5.41667 1.85884 6.05084 1.85112C7.10561 1.80373 7.4218 1.7933 10.0918 1.7933V1.7933ZM10.0918 0C7.37751 0 7.03561 0.011374 5.96894 0.0597134C5.13896 0.0761431 4.3178 0.232541 3.54037 0.522256C2.87346 0.772325 2.26941 1.16421 1.77037 1.67055C1.26113 2.1674 0.867032 2.7689 0.615606 3.43305C0.324502 4.20676 0.167353 5.02401 0.150845 5.85002C0.103225 6.91065 0.0917969 7.25092 0.0917969 9.95224C0.0917969 12.6536 0.103225 12.9938 0.151797 14.0554C0.168305 14.8814 0.325454 15.6987 0.616559 16.4724C0.867706 17.1364 1.26147 17.7379 1.77037 18.2349C2.26969 18.7413 2.87407 19.1332 3.54132 19.3832C4.31875 19.6729 5.13991 19.8293 5.96989 19.8457C7.03656 19.8931 7.37704 19.9054 10.0927 19.9054C12.8085 19.9054 13.1489 19.8941 14.2156 19.8457C15.0456 19.8293 15.8667 19.6729 16.6442 19.3832C17.3083 19.127 17.9113 18.7357 18.4148 18.2343C18.9182 17.7329 19.311 17.1325 19.568 16.4714C19.8591 15.6977 20.0162 14.8805 20.0327 14.0545C20.0804 12.9938 20.0918 12.6536 20.0918 9.95224C20.0918 7.25092 20.0804 6.91065 20.0318 5.84907C20.0153 5.02306 19.8581 4.20581 19.567 3.4321C19.3159 2.76804 18.9221 2.16654 18.4132 1.66961C17.9139 1.16314 17.3095 0.771255 16.6423 0.521308C15.8648 0.231593 15.0437 0.0751953 14.2137 0.0587656C13.148 0.011374 12.8061 0 10.0918 0Z" fill="#FDFDFD"/>
<path d="M10.0903 4.8418C9.07466 4.8418 8.08182 5.14154 7.23733 5.70311C6.39285 6.26468 5.73465 7.06286 5.34598 7.99672C4.9573 8.93058 4.85561 9.95818 5.05375 10.9496C5.2519 11.9409 5.74098 12.8516 6.45916 13.5663C7.17733 14.2811 8.09234 14.7678 9.08848 14.965C10.0846 15.1622 11.1171 15.061 12.0555 14.6742C12.9938 14.2874 13.7958 13.6323 14.3601 12.7919C14.9244 11.9514 15.2256 10.9633 15.2256 9.95251C15.2256 8.59706 14.6845 7.29713 13.7215 6.33869C12.7584 5.38025 11.4523 4.8418 10.0903 4.8418ZM10.0903 13.2699C9.43105 13.2699 8.78658 13.0754 8.23842 12.7108C7.69025 12.3463 7.26301 11.8282 7.01072 11.222C6.75843 10.6158 6.69242 9.94883 6.82103 9.30531C6.94965 8.6618 7.26712 8.07069 7.7333 7.60674C8.19947 7.1428 8.79341 6.82684 9.44002 6.69884C10.0866 6.57084 10.7568 6.63653 11.3659 6.88762C11.975 7.13871 12.4956 7.56391 12.8619 8.10945C13.2282 8.655 13.4237 9.29639 13.4237 9.95251C13.4237 10.8323 13.0725 11.6761 12.4473 12.2983C11.8222 12.9204 10.9744 13.2699 10.0903 13.2699V13.2699Z" fill="#FDFDFD"/>
<path d="M15.4305 5.83388C16.0932 5.83388 16.6305 5.29919 16.6305 4.63961C16.6305 3.98004 16.0932 3.44534 15.4305 3.44534C14.7677 3.44534 14.2305 3.98004 14.2305 4.63961C14.2305 5.29919 14.7677 5.83388 15.4305 5.83388Z" fill="#FDFDFD"/>
</svg>
