<svg width="70" height="70" viewBox="0 0 70 70" fill="none" xmlns="http://www.w3.org/2000/svg">
<circle cx="35" cy="35" r="34.5" fill="#FDFDFD" stroke="#D9E7FF"/>
<path d="M35 50C43.2843 50 50 43.2843 50 35C50 26.7157 43.2843 20 35 20C26.7157 20 20 26.7157 20 35C20 43.2843 26.7157 50 35 50Z" stroke="#1B1BE6" stroke-width="3" stroke-linecap="round" stroke-linejoin="round"/>
<path d="M35 44C39.9706 44 44 39.9706 44 35C44 30.0294 39.9706 26 35 26C30.0294 26 26 30.0294 26 35C26 39.9706 30.0294 44 35 44Z" stroke="#1B1BE6" stroke-width="3" stroke-linecap="round" stroke-linejoin="round"/>
<path d="M35 38C36.6569 38 38 36.6569 38 35C38 33.3431 36.6569 32 35 32C33.3431 32 32 33.3431 32 35C32 36.6569 33.3431 38 35 38Z" stroke="#1B1BE6" stroke-width="3" stroke-linecap="round" stroke-linejoin="round"/>
</svg>
