<svg width="734" height="201" viewBox="0 0 734 201" fill="none" xmlns="http://www.w3.org/2000/svg">
<path d="M135.095 30.1937H135.457V29.8323V5.55897H144.597H144.959V5.19758V1.54602V1.18464H144.597H121.698H121.336V1.54602V5.19758V5.55897H121.698H130.798V29.8323V30.1937H131.159H135.095Z" fill="#1B1BE6" stroke="#1B1BE6" stroke-width="0.72277"/>
<path d="M152.319 29.8323V30.1937H152.68H172.885H173.247V29.8323V26.1799V25.8185H172.885H156.983V16.9857H166.722H167.083V16.6244V13.1848V12.8234H166.722H156.983V5.55897H172.466H172.827V5.19758V1.54602V1.18464H172.466H152.68H152.319V1.54602V29.8323Z" fill="#1B1BE6" stroke="#1B1BE6" stroke-width="0.72277"/>
<path d="M267.63 29.9653L267.72 30.1937H267.966H272.565H273.109L272.898 29.6921L260.987 1.40578L260.894 1.18464H260.654H256.145H255.905L255.812 1.4062L243.944 29.6925L243.734 30.1937H244.277H248.568H248.812L248.903 29.967L251.966 22.3386H264.612L267.63 29.9653ZM262.97 18.1317H253.657L258.372 6.39076L262.97 18.1317Z" fill="#1B1BE6" stroke="#1B1BE6" stroke-width="0.72277"/>
<path d="M280.284 29.8323V30.1937H280.645H300.85H301.212V29.8323V26.1799V25.8185H300.85H285.064V1.54602V1.18464H284.703H280.645H280.284V1.54602V29.8323Z" fill="#1B1BE6" stroke="#1B1BE6" stroke-width="0.72277"/>
<path d="M310.514 15.6911C310.514 12.5395 311.391 9.89368 312.964 8.04219C314.532 6.19722 316.817 5.11048 319.706 5.11048C322.574 5.11048 324.858 6.19679 326.431 8.04258C328.009 9.89453 328.895 12.5404 328.895 15.6911C328.895 18.8401 328.009 21.4971 326.43 23.3603C324.857 25.2172 322.572 26.314 319.706 26.314C316.818 26.314 314.533 25.2167 312.965 23.3606C311.391 21.4979 310.514 18.8411 310.514 15.6911ZM305.669 15.6911C305.669 19.94 307.019 23.7023 309.459 26.4068C311.903 29.115 315.421 30.7397 319.706 30.7397C323.99 30.7397 327.519 29.1152 329.974 26.4074C332.425 23.7032 333.786 19.9408 333.786 15.6911C333.786 11.4419 332.425 7.67865 329.974 4.97349C327.519 2.2648 323.99 0.639103 319.706 0.639103C315.421 0.639103 311.903 2.26491 309.459 4.97411C307.019 7.67954 305.669 11.4427 305.669 15.6911Z" fill="#1B1BE6" stroke="#1B1BE6" stroke-width="0.72277"/>
<path d="M363.99 19.1593C363.736 21.34 362.782 23.1041 361.344 24.3438C359.82 25.6584 357.73 26.4019 355.3 26.4019C352.452 26.4019 350.167 25.3346 348.589 23.4836C347.006 21.6264 346.108 18.9488 346.108 15.6921C346.108 12.4761 346.985 9.80871 348.558 7.95172C350.125 6.10154 352.409 5.02368 355.3 5.02368C358.666 5.02368 361.162 6.49284 362.823 9.07459L363.026 9.39005L363.334 9.17546L366.449 7.00254L366.744 6.79677L366.54 6.5008C363.945 2.74274 360.132 0.64008 355.217 0.64008C351.019 0.64008 347.521 2.19995 345.076 4.87203C342.633 7.54112 341.262 11.295 341.262 15.6499C341.262 19.9828 342.633 23.7565 345.091 26.4511C347.552 29.1489 351.08 30.7407 355.342 30.7407C359.56 30.7407 362.899 29.1815 365.18 26.7251C367.458 24.2728 368.665 20.9461 368.665 17.4356C368.665 16.52 368.576 15.819 368.491 15.2539L368.445 14.9461H368.134H355.3H354.939V15.3074V18.7979V19.1593H355.3H363.99Z" fill="#1B1BE6" stroke="#1B1BE6" stroke-width="0.72277"/>
<path d="M377.565 29.8704V30.2318H377.926H381.838H382.2V29.8704V1.51233V1.15094H381.838H377.926H377.565V1.51233V29.8704Z" fill="#1B1BE6" stroke="#1B1BE6" stroke-width="0.72277"/>
<path d="M413.05 9.07411L413.253 9.38965L413.561 9.17492L416.674 7.002L416.969 6.79624L416.765 6.50035C414.17 2.74143 410.359 0.638737 405.442 0.638737C401.263 0.638737 397.766 2.23196 395.317 4.92398C392.871 7.61298 391.488 11.3766 391.488 15.6916C391.488 20.0249 392.871 23.7877 395.323 26.4712C397.778 29.1576 401.285 30.7394 405.484 30.7394C410.489 30.7394 414.431 28.4669 416.895 24.7034L417.092 24.4018L416.791 24.2036L413.552 22.0728L413.245 21.8708L413.048 22.1813C411.384 24.8078 408.762 26.4014 405.442 26.4014C402.702 26.4014 400.437 25.3365 398.851 23.4778C397.262 21.6138 396.334 18.9248 396.334 15.6495C396.334 12.416 397.251 9.75951 398.845 7.91719C400.434 6.08006 402.72 5.0232 405.526 5.0232C408.894 5.0232 411.389 6.49234 413.05 9.07411Z" fill="#1B1BE6" stroke="#1B1BE6" stroke-width="0.72277"/>
<path d="M200.582 17.9279C203.828 16.6196 206.193 13.7923 206.193 9.8159C206.193 7.21221 205.252 5.0338 203.542 3.50991C201.837 1.98981 199.399 1.15009 196.45 1.15009H184.162H183.801V1.51147V29.8704V30.2318H184.162H188.119H188.48V29.8704V20.2657V19.9043H188.479V13.4534H188.48V13.0921V5.53455H196.323C197.872 5.53455 199.137 5.99272 200.009 6.77861C200.878 7.56095 201.389 8.69485 201.389 10.1137C201.389 11.472 200.908 12.586 200.07 13.3625C199.229 14.1412 197.997 14.6084 196.45 14.6084H192.211H191.849V14.9698V18.4594V18.8208H192.211H195.935L201.811 30.0381L201.912 30.2318H202.131H206.592H207.196L206.91 29.6993L200.582 17.9279Z" fill="#1B1BE6" stroke="#1B1BE6" stroke-width="0.72277"/>
<path d="M231.481 17.9273C234.726 16.619 237.091 13.7917 237.091 9.81529C237.091 7.2116 236.151 5.03319 234.441 3.5093C232.735 1.9892 230.297 1.14948 227.349 1.14948H215.06H214.699V1.51086V29.8698V30.2312H215.06H219.017H219.379V29.8698V20.2651V19.9037H219.377V13.4528H219.379V13.0915V5.53394H227.221C228.77 5.53394 230.035 5.9921 230.907 6.77801C231.776 7.56037 232.288 8.69429 232.288 10.113C232.288 11.4713 231.806 12.5854 230.968 13.3619C230.127 14.1406 228.895 14.6078 227.349 14.6078H223.109H222.748V14.9692V18.4588V18.8202H223.109H226.833L232.708 30.0375L232.81 30.2312H233.028H237.489H238.094L237.807 29.6987L231.481 17.9273Z" fill="#1B1BE6" stroke="#1B1BE6" stroke-width="0.72277"/>
<path d="M719.515 137.057H717.413C714.61 142.663 710.931 147.101 706.376 150.371C701.821 153.642 696.04 155.277 689.033 155.277C684.244 155.277 679.806 154.459 675.719 152.824C671.748 151.306 668.303 148.97 665.383 145.817C662.58 142.663 660.361 138.751 658.726 134.079C657.207 129.408 656.448 123.977 656.448 117.787V65.9323H670.113V116.035C670.113 125.145 671.981 131.802 675.719 136.006C679.456 140.211 685.179 142.313 692.887 142.313C701.179 142.313 707.661 139.51 712.332 133.904C717.121 128.181 719.515 120.59 719.515 111.13V65.9323H733.179V174.197C733.179 178.167 731.895 181.438 729.325 184.007C726.873 186.576 723.661 187.861 719.69 187.861H670.113V175.248H714.785C717.938 175.248 719.515 173.496 719.515 169.992V137.057Z" fill="#191516"/>
<path d="M632.745 152.824H619.081V90.4582C619.081 86.3706 618.147 83.0421 616.278 80.4727C614.409 77.7865 611.431 76.4434 607.344 76.4434C603.489 76.4434 600.336 77.9033 597.884 80.8231C595.548 83.626 594.38 88.0056 594.38 93.9619V152.824H580.715V89.7575C580.715 85.9034 579.664 82.7501 577.562 80.2975C575.46 77.7281 572.657 76.4434 569.153 76.4434C564.949 76.4434 561.679 77.9617 559.343 80.9982C557.124 84.0348 556.014 88.0056 556.014 92.9108V152.824H542.35V65.9323H556.014V75.3923H558.117C559.635 71.3047 561.854 68.3265 564.774 66.4579C567.693 64.4725 571.139 63.4797 575.11 63.4797C579.314 63.4797 582.759 64.5892 585.445 66.8082C588.248 69.0273 590.175 71.8886 591.227 75.3923H593.329C597.3 67.4506 603.606 63.4797 612.249 63.4797C618.789 63.4797 623.811 65.582 627.315 69.7864C630.935 73.874 632.745 79.2464 632.745 85.9034V152.824Z" fill="#191516"/>
<path d="M451.901 113.583C452.252 122.225 454.938 129.174 459.96 134.43C464.982 139.685 471.989 142.313 480.982 142.313C485.07 142.313 488.632 141.846 491.668 140.911C494.705 139.977 497.274 138.692 499.376 137.057C501.595 135.422 503.347 133.554 504.632 131.452C506.033 129.233 507.143 126.897 507.961 124.444L520.924 127.948C518.472 136.006 513.917 142.605 507.26 147.744C500.72 152.766 491.844 155.277 480.632 155.277C474.442 155.277 468.719 154.226 463.464 152.123C458.325 149.904 453.887 146.809 450.149 142.839C446.412 138.868 443.492 134.138 441.39 128.649C439.288 123.159 438.237 117.086 438.237 110.429V106.225C438.237 100.152 439.288 94.4875 441.39 89.2319C443.609 83.9764 446.646 79.48 450.5 75.7427C454.354 71.8886 458.85 68.9105 463.989 66.8082C469.245 64.5892 474.909 63.4797 480.982 63.4797C488.106 63.4797 494.238 64.8228 499.376 67.509C504.632 70.0784 508.895 73.2901 512.165 77.1442C515.552 80.9982 518.004 85.2027 519.523 89.7575C521.158 94.3123 521.975 98.5167 521.975 102.371V113.583H451.901ZM480.982 76.4434C477.128 76.4434 473.508 77.0858 470.121 78.3705C466.85 79.5384 463.931 81.2318 461.361 83.4508C458.909 85.6698 456.865 88.2976 455.23 91.3342C453.712 94.2539 452.719 97.4656 452.252 100.969H508.311C508.077 97.232 507.143 93.8451 505.508 90.8086C503.99 87.7721 501.946 85.2027 499.376 83.1005C496.924 80.9982 494.063 79.3632 490.792 78.1953C487.639 77.0274 484.369 76.4434 480.982 76.4434Z" fill="#191516"/>
<path d="M399.505 86.9635L333.13 63.3789L333.355 78.7633L395.35 99.4281C405.176 102.704 405.382 116.529 395.657 120.095L346.519 134.657V95.1618L333.355 91.5121L333.171 140.087L333.314 155.342L400.18 132.431C421.575 124.586 421.123 94.1698 399.505 86.9635Z" fill="#191516"/>
<path fill-rule="evenodd" clip-rule="evenodd" d="M288.347 138.109H290.449V139.16V152.824H303.938L304.113 134.955V65.9323H290.449V79.5968H288.347C285.544 74.1076 281.69 70.0784 276.784 67.509C271.996 64.8228 266.624 63.4797 260.667 63.4797C255.178 63.4797 249.981 64.4725 245.076 66.4579C240.171 68.4433 235.85 71.3631 232.112 75.2171C228.492 78.9544 225.63 83.5676 223.528 89.0567C221.426 94.5459 220.375 100.853 220.375 107.977V110.78C220.375 118.021 221.426 124.386 223.528 129.875C225.63 135.364 228.492 140.036 232.112 143.89C235.85 147.627 240.171 150.488 245.076 152.474C249.981 154.342 255.295 155.277 261.018 155.277C266.507 155.277 271.704 153.875 276.609 151.072C281.631 148.269 285.544 143.948 288.347 138.109ZM273.631 140.036C270.244 141.554 266.507 142.313 262.419 142.313C254.127 142.313 247.353 139.568 242.098 134.079C236.959 128.473 234.39 120.707 234.39 110.78V107.977C234.39 103.305 235.09 99.0423 236.492 95.1882C237.893 91.2174 239.82 87.8889 242.273 85.2027C244.842 82.3997 247.821 80.2391 251.207 78.7208C254.594 77.2026 258.332 76.4434 262.419 76.4434C266.39 76.4434 270.069 77.261 273.456 78.896C276.96 80.4143 279.938 82.5749 282.39 85.3779C284.96 88.1808 286.945 91.5677 288.347 95.5386C289.748 99.3927 290.449 103.655 290.449 108.327V110.429C290.449 115.218 289.748 119.597 288.347 123.568C286.945 127.422 285.018 130.751 282.566 133.554C280.113 136.357 277.135 138.517 273.631 140.036Z" fill="#191516"/>
<path fill-rule="evenodd" clip-rule="evenodd" d="M137.919 86.9635L204.293 63.3789L204.069 78.7633L142.074 99.4281C132.247 102.704 132.042 116.529 141.767 120.095L204.253 140.087L204.109 155.342L137.244 132.431C115.848 124.586 116.3 94.1698 137.919 86.9635Z" fill="#191516"/>
<path d="M77.4925 122.342H24.937L16.0026 152.824H0.235931L37.3751 30.1946H65.0544L102.194 152.824H86.4269L77.4925 122.342ZM50.1637 36.5012L28.9663 108.677H73.4633L52.2659 36.5012H50.1637Z" fill="#191516"/>
<path d="M646.742 187.861H670.1V195.16C670.1 198.386 667.486 201 664.261 201H646.742V187.861Z" fill="#191516"/>
</svg>
