<svg width="48" height="48" viewBox="0 0 48 48" fill="none" xmlns="http://www.w3.org/2000/svg">
<rect width="48" height="48" rx="12" fill="#FDE4D7"/>
<g clip-path="url(#clip0_1346_744)">
<path d="M17.5866 19.7212H12.7685C12.5547 19.7212 12.3814 19.8945 12.3814 20.1083V35.5866C12.3814 35.8004 12.5547 35.9737 12.7685 35.9737H17.5866C17.8004 35.9737 17.9737 35.8004 17.9737 35.5866V20.1083C17.9737 19.8945 17.8004 19.7212 17.5866 19.7212Z" fill="#F36A44"/>
<path d="M15.1793 12.0264C13.4262 12.0264 12 13.451 12 15.2022C12 16.9541 13.4262 18.3793 15.1793 18.3793C16.931 18.3793 18.3561 16.954 18.3561 15.2022C18.3561 13.451 16.931 12.0264 15.1793 12.0264Z" fill="#F36A44"/>
<path d="M29.8416 19.3364C27.9065 19.3364 26.476 20.1683 25.6084 21.1135V20.1082C25.6084 19.8945 25.4351 19.7211 25.2213 19.7211H20.6072C20.3934 19.7211 20.2201 19.8945 20.2201 20.1082V35.5865C20.2201 35.8003 20.3934 35.9736 20.6072 35.9736H25.4147C25.6285 35.9736 25.8018 35.8003 25.8018 35.5865V27.9283C25.8018 25.3477 26.5028 24.3424 28.3017 24.3424C30.2608 24.3424 30.4165 25.9541 30.4165 28.0611V35.5866C30.4165 35.8004 30.5898 35.9737 30.8036 35.9737H35.6129C35.8268 35.9737 36 35.8004 36 35.5866V27.0965C36 23.2592 35.2683 19.3364 29.8416 19.3364Z" fill="#F36A44"/>
</g>
<defs>
<clipPath id="clip0_1346_744">
<rect width="24" height="24" fill="white" transform="translate(12 12)"/>
</clipPath>
</defs>
</svg>
