<svg width="69" height="52" viewBox="0 0 69 52" fill="none" xmlns="http://www.w3.org/2000/svg">
<path d="M51.6646 0.200195C54.5986 0.200195 57.0861 0.838032 59.1272 2.11371C61.2958 3.26181 63.0818 4.79261 64.485 6.70611C65.8882 8.74717 66.845 11.1072 67.3553 13.7861C67.9931 16.465 68.312 19.0801 68.312 21.6314C68.312 27.8822 66.6536 33.6865 63.3369 39.0443C60.4161 43.9512 55.9974 47.9486 50.0807 51.0365C49.1626 51.5156 48.0417 51.1249 47.5786 50.1987C47.0937 49.229 47.5183 48.0566 48.472 47.5408C51.4233 45.9448 54.0183 43.8142 56.257 41.1491C59.0634 37.8324 60.658 34.3881 61.0407 30.8162C61.6675 27.9956 58.2157 26.8039 55.4322 27.5792C54.0966 27.9513 52.6494 28.1373 51.0905 28.1373C47.1359 28.1373 43.8192 26.9254 41.1403 24.5017C38.4614 22.0779 37.1219 18.6336 37.1219 14.1688C37.1219 10.0866 38.4614 6.76989 41.1403 4.21855C43.9468 1.53965 47.4548 0.200195 51.6646 0.200195ZM14.5426 0.200195C17.4767 0.200195 19.9642 0.838032 22.0053 2.11371C24.1739 3.26181 25.9598 4.79261 27.3631 6.70611C28.7663 8.74717 29.7231 11.1072 30.2333 13.7861C30.8712 16.465 31.1901 19.0801 31.1901 21.6314C31.1901 27.8822 29.5317 33.6865 26.215 39.0443C23.2942 43.9512 18.8755 47.9486 12.9588 51.0365C12.0407 51.5156 10.9197 51.1249 10.4566 50.1987C9.97177 49.229 10.3964 48.0566 11.35 47.5408C14.3014 45.9448 16.8964 43.8142 19.135 41.1491C21.9415 37.8324 23.5361 34.3881 23.9188 30.8162C24.5456 27.9956 21.0938 26.8039 18.3103 27.5792C16.9747 27.9513 15.5274 28.1373 13.9686 28.1373C10.014 28.1373 6.69726 26.9254 4.01835 24.5017C1.33945 22.0779 0 18.6336 0 14.1688C0 10.0866 1.33945 6.76989 4.01835 4.21855C6.82482 1.53965 10.3329 0.200195 14.5426 0.200195Z" fill="#D9E7FF"/>
</svg>
