<svg width="21" height="20" viewBox="0 0 21 20" fill="none" xmlns="http://www.w3.org/2000/svg">
<path d="M10.2679 18.3334C14.8703 18.3334 18.6012 14.6024 18.6012 10C18.6012 5.39765 14.8703 1.66669 10.2679 1.66669C5.66553 1.66669 1.93457 5.39765 1.93457 10C1.93457 14.6024 5.66553 18.3334 10.2679 18.3334Z" stroke="#1B1BE6" stroke-width="1.2" stroke-linecap="round" stroke-linejoin="round"/>
<path d="M10.2679 14.1667H10.2763" stroke="#1B1BE6" stroke-width="1.2" stroke-linecap="round" stroke-linejoin="round"/>
<path d="M7.8429 7.50005C8.03882 6.9431 8.42552 6.47347 8.93452 6.17432C9.44353 5.87518 10.042 5.76583 10.6239 5.86564C11.2058 5.96545 11.7336 6.26798 12.1138 6.71965C12.494 7.17132 12.7021 7.74298 12.7012 8.33338C12.7012 10 10.2012 10.8334 10.2012 10.8334" stroke="#1B1BE6" stroke-width="1.2" stroke-linecap="round" stroke-linejoin="round"/>
</svg>
